# xmcd
#
# Track frame offsets: 
#        150
#        12767
#        25490
#        39581
#        52563
#        65706
#        78534
#        91042
#        105128
#        118355
#        130726
#        140712
#        153494
#        166198
#        178883
#        191722
#        205101
#        216944
#        231579
#        241431
#        253950
#        265712
#        278911
#        291121
#        303241
#
# Disc length: 4213 seconds
#
# Revision: 2
# Processed by: cddbd v1.5.2PL0 Copyright (c) Steve Scherf et al.
# Submitted via: ExactAudioCopyFreeDBPlugin 1.0
#
DISCID=6b107319
DTITLE=Various Artist - Essential Chicago Blues CD2
DYEAR=2010
DGENRE=Blues
TTITLE0=Muddy Waters - I'm Your Hoochie Coochie Man
TTITLE1=Sonny Boy Williamson - Keep It To Yourself
TTITLE2=Howlin' Wolf - Smokestack Lightnin'
TTITLE3=Junior Wells - I Could Cry
TTITLE4=Magic Sam - All Your Love
TTITLE5=Willie Mabon - Poison Ivy
TTITLE6=Elmore James - Cry For Me baby
TTITLE7=Otis Rush - I Can't Quit You Baby
TTITLE8=Sunnyland Slim - Woman Trouble
TTITLE9=Little Walter and His Combo - Juke
TTITLE10=Jimmy Reed - Ain't That Loving You Baby
TTITLE11=Howlin' Wolf - I Asked For Water
TTITLE12=Bo Diddley - Pretty Thing
TTITLE13=Sonny Boy Williamson - Keep It To Yourself
TTITLE14=Junior Wells - Cut That Out
TTITLE15=Buddy Guy - This Is The End
TTITLE16=Willie Mabon - I'm Mad
TTITLE17=Eddie Boyd - Third Degree
TTITLE18=Willie Dixon - 29 Ways
TTITLE19=Jimmy Rodgers - That's Allright
TTITLE20=Freddy King - That's What You Think
TTITLE21=Floyd Jones - Early Morning
TTITLE22=Junior Wells - Two Headed Woman
TTITLE23=Little Walter and His Combo - My Babe
TTITLE24=Muddy Waters - Just Make Love To Me
EXTD=
EXTT0=
EXTT1=
EXTT2=
EXTT3=
EXTT4=
EXTT5=
EXTT6=
EXTT7=
EXTT8=
EXTT9=
EXTT10=
EXTT11=
EXTT12=
EXTT13=
EXTT14=
EXTT15=
EXTT16=
EXTT17=
EXTT18=
EXTT19=
EXTT20=
EXTT21=
EXTT22=
EXTT23=
EXTT24=
PLAYORDER=
